HIERARCHY
ROOT Hips
{
	OFFSET	0.00	0.00	0.00
	CHANNELS 6 Xposition Yposition Zposition Zrotation Xrotation Yrotation
	JOINT LeftUpLeg
	{
		OFFSET	 0.126116	-0.065224	 0.014019
		CHANNELS 3 Zrotation Xrotation Yrotation
		JOINT LeftLeg
		{
			OFFSET	 0.000000	 0.569914	 0.000000
			CHANNELS 3 Zrotation Xrotation Yrotation
			JOINT LeftFoot
			{
				OFFSET	 0.000000	 0.544423	 0.000000
				CHANNELS 3 Zrotation Xrotation Yrotation
				JOINT LeftToeBase
				{
					OFFSET	 0.000000	 0.207117	 0.000000
					CHANNELS 3 Zrotation Xrotation Yrotation
					End Site
					{
						OFFSET	 0.000000	 0.207117	 0.000000
					}
				}
			}
		}
	}
	JOINT RightUpLeg
	{
		OFFSET	-0.124023	-0.065224	 0.008373
		CHANNELS 3 Zrotation Xrotation Yrotation
		JOINT RightLeg
		{
			OFFSET	 0.000000	 0.570047	 0.000000
			CHANNELS 3 Zrotation Xrotation Yrotation
			JOINT RightFoot
			{
				OFFSET	 0.000000	 0.544354	 0.000000
				CHANNELS 3 Zrotation Xrotation Yrotation
				JOINT RightToeBase
				{
					OFFSET	 0.000000	 0.207540	 0.000000
					CHANNELS 3 Zrotation Xrotation Yrotation
					End Site
					{
						OFFSET	 0.000000	 0.207540	 0.000000
					}
				}
			}
		}
	}
	JOINT Spine
	{
		OFFSET	 0.000184	 0.117403	 0.007763
		CHANNELS 3 Zrotation Xrotation Yrotation
		JOINT Spine1
		{
			OFFSET	 0.000000	 0.137269	 0.000000
			CHANNELS 3 Zrotation Xrotation Yrotation
			JOINT Spine2
			{
				OFFSET	 0.000000	 0.156879	 0.000000
				CHANNELS 3 Zrotation Xrotation Yrotation
				JOINT LeftShoulder
				{
					OFFSET	 0.080501	 0.160143	 0.002496
					CHANNELS 3 Zrotation Xrotation Yrotation
					JOINT LeftArm
					{
						OFFSET	 0.000000	 0.164363	 0.000000
						CHANNELS 3 Zrotation Xrotation Yrotation
						JOINT LeftForeArm
						{
							OFFSET	 0.000000	 0.364576	 0.000000
							CHANNELS 3 Zrotation Xrotation Yrotation
							JOINT LeftHand
							{
								OFFSET	 0.000000	 0.360812	 0.000000
								CHANNELS 3 Zrotation Xrotation Yrotation
								JOINT LeftHandIndex1
								{
									OFFSET	 0.000000	 0.086006	 0.000000
									CHANNELS 3 Zrotation Xrotation Yrotation
									JOINT LeftHandIndex2
									{
										OFFSET	 0.000000	 0.047237	 0.000000
										CHANNELS 3 Zrotation Xrotation Yrotation
										JOINT LeftHandIndex3
										{
											OFFSET	-0.004284	 0.038165	 0.000551
											CHANNELS 3 Zrotation Xrotation Yrotation
											End Site
											{
												OFFSET	-0.004284	 0.038165	 0.000551
											}
										}
									}
								}
							}
						}
					}
				}
				JOINT Neck
				{
					OFFSET	 0.000000	 0.176489	 0.000000
					CHANNELS 3 Zrotation Xrotation Yrotation
					JOINT Head
					{
						OFFSET	 0.000000	 0.077941	 0.001747
						CHANNELS 3 Zrotation Xrotation Yrotation
						End Site
						{
							OFFSET	 0.000000	 0.077941	 0.001747
						}
					}
				}
				JOINT RightShoulder
				{
					OFFSET	-0.080363	 0.159706	-0.000306
					CHANNELS 3 Zrotation Xrotation Yrotation
					JOINT RightArm
					{
						OFFSET	 0.000000	 0.164196	 0.000000
						CHANNELS 3 Zrotation Xrotation Yrotation
						JOINT RightForeArm
						{
							OFFSET	 0.000000	 0.365611	 0.000000
							CHANNELS 3 Zrotation Xrotation Yrotation
							JOINT RightHand
							{
								OFFSET	 0.000000	 0.360648	 0.000000
								CHANNELS 3 Zrotation Xrotation Yrotation
								JOINT RightHandIndex1
								{
									OFFSET	 0.000000	 0.069977	 0.000000
									CHANNELS 3 Zrotation Xrotation Yrotation
									JOINT RightHandIndex2
									{
										OFFSET	 0.000000	 0.052305	 0.000000
										CHANNELS 3 Zrotation Xrotation Yrotation
										JOINT RightHandIndex3
										{
											OFFSET	 0.009002	 0.042196	 0.000782
											CHANNELS 3 Zrotation Xrotation Yrotation
											End Site
											{
												OFFSET	 0.009002	 0.042196	 0.000782
											}
										}
									}
								}
							}
						}
					}
				}
			}
		}
	}
}
MOTION
Frames:    7
Frame Time: 0.03333334
-0.047770	 1.234693	-1.247209	-2.428752	 1.297409	-174.261100	 166.863300	 6.994823	 12.201930	 4.185899	-28.804920	 6.035155	 6.605688	 76.976020	 1.032549	 1.513357	 31.253640	-2.812165	-175.730700	 27.679700	-11.308620	-5.787380	-53.266580	 6.327663	 13.129030	 70.406770	-9.075756	-1.668997	 33.142880	 2.886419	-1.438182	 8.859504	-11.297110	 4.265548	 2.647942	-5.154230	-4.338595	-2.597676	 12.189470	-121.358500	 7.436864	 94.042140	 26.866680	 47.039030	-8.477809	 6.960566	-0.359010	-0.070001	-3.430540	-28.448320	-24.481200	 4.625899	 18.862180	-1.655886	-5.863937	 21.475800	 2.374217	 5.331741	 4.345002	-0.168948	-0.168615	-5.010720	-0.143576	-2.150205	-2.436196	 0.103071	 118.422100	-0.021147	-90.822680	 11.825090	 55.354000	-15.424040	-16.710400	-0.647987	-0.028602	-5.684211	-1.443623	-43.370600	-2.431894	 25.946030	 1.333009	 15.843230	 44.936020	-11.825740	-8.529195	 23.943850	-1.224566
-0.047750	 1.234395	-1.249570	-2.432760	 1.246053	-174.212900	 166.850900	 6.950617	 12.208510	 4.216114	-28.868230	 6.125679	 6.931039	 77.080020	 0.725227	 1.516612	 31.294120	-2.813697	-175.824700	 28.031920	-11.169550	-5.804830	-53.279930	 6.349434	 13.956580	 70.916530	-9.676601	-1.670418	 33.159870	 2.887129	-1.430949	 8.722061	-11.308200	 4.265318	 2.946924	-5.179626	-4.326222	-3.040021	 12.154160	-121.357500	 7.477392	 94.062240	 25.562430	 47.184240	-7.398045	 8.720234	-0.448299	-0.081967	-3.815323	-29.034280	-24.395620	 4.631132	 18.879350	-1.658676	-5.863891	 21.490880	 2.375881	 5.332388	 4.360172	-0.168672	-0.169357	-5.014165	-0.140168	-2.139412	-2.505313	 0.090547	 118.416400	-0.045042	-90.811450	 12.326930	 55.391780	-15.761430	-16.623490	-0.644008	-0.003280	-6.073892	-1.518585	-43.394030	-2.412876	 25.804890	 1.322806	 15.807410	 44.798320	-11.770670	-8.529739	 23.802160	-1.215118
-0.047709	 1.233999	-1.252831	-2.440876	 1.180678	-174.152200	 166.836300	 6.876074	 12.303880	 4.203941	-28.945460	 6.138128	 7.357381	 77.220650	 0.323397	 1.520711	 31.345070	-2.815629	-175.951200	 28.511420	-10.996270	-5.826086	-53.287350	 6.377604	 15.046800	 71.508030	-10.475800	-1.672205	 33.181230	 2.888024	-1.422774	 8.573093	-11.312140	 4.256520	 3.253681	-5.199139	-4.305264	-3.494455	 12.089840	-121.356100	 7.528385	 94.087560	 24.248860	 47.287520	-6.283473	 10.626980	-0.544424	-0.096076	-4.233530	-29.695760	-24.234680	 4.637720	 18.900960	-1.662190	-5.863833	 21.509860	 2.377976	 5.333203	 4.379263	-0.168326	-0.170290	-5.018501	-0.135879	-2.125428	-2.578087	 0.070805	 118.409300	-0.075113	-90.797330	 12.908390	 55.430760	-16.144300	-16.538970	-0.639953	 0.028310	-6.445529	-1.627385	-43.385630	-2.389012	 25.627240	 1.310058	 15.762710	 44.624990	-11.701720	-8.530387	 23.623840	-1.203244
-0.047610	 1.233259	-1.259139	-2.458772	 1.067729	-174.048400	 166.816500	 6.702158	 12.386240	 4.222742	-29.053650	 6.246888	 8.142304	 77.487670	-0.415052	 1.527755	 31.432480	-2.818958	-176.187500	 29.416690	-10.699920	-5.858768	-53.266130	 6.429573	 17.028920	 72.394130	-11.946030	-1.675275	 33.217900	 2.889562	-1.409838	 8.351357	-11.306710	 4.230348	 3.689281	-5.217129	-4.262177	-4.137866	 11.952340	-121.353900	 7.615894	 94.131030	 22.485600	 47.340710	-4.740581	 13.487450	-0.687188	-0.117767	-4.886137	-30.712380	-23.882880	 4.649028	 18.938030	-1.668228	-5.863735	 21.542440	 2.381572	 5.334603	 4.412023	-0.167731	-0.171890	-5.025941	-0.128519	-2.100900	-2.683864	 0.031410	 118.397200	-0.126707	-90.773140	 13.852930	 55.484990	-16.757460	-16.416600	-0.633814	 0.082350	-6.943696	-1.835187	-43.322910	-2.348241	 25.322370	 1.288412	 15.687000	 44.327420	-11.584300	-8.531407	 23.317810	-1.182908
-0.047504	 1.232578	-1.265106	-2.476267	 0.971671	-173.960900	 166.806100	 6.513611	 12.452670	 4.235503	-29.126960	 6.337110	 8.857336	 77.735140	-1.086598	 1.533701	 31.506150	-2.821774	-176.406300	 30.247470	-10.529110	-5.771128	-53.211470	 6.615084	 18.781390	 73.015530	-13.257030	-1.677864	 33.248790	 2.890860	-1.399991	 8.182795	-11.295920	 4.202352	 4.008962	-5.224568	-4.222028	-4.603929	 11.820500	-121.352100	 7.689612	 94.167640	 21.337170	 47.301550	-3.697449	 15.640460	-0.793328	-0.134057	-5.403523	-31.487570	-23.538730	 4.658563	 18.969260	-1.673323	-5.863655	 21.569880	 2.384602	 5.335781	 4.439629	-0.167231	-0.173237	-5.032211	-0.122317	-2.079931	-2.762084	-0.004999	 118.387000	-0.170226	-90.752720	 14.623760	 55.523060	-17.253670	-16.311390	-0.628550	 0.127833	-7.302329	-2.023029	-43.243340	-2.314059	 25.065420	 1.270399	 15.624150	 44.076560	-11.486230	-8.532172	 23.059910	-1.165811
-0.046725	 1.228563	-1.301929	-2.584884	 0.484600	-173.529900	 166.856500	 5.059094	 12.744510	 4.242925	-29.169590	 6.757857	 13.210710	 79.134760	-5.175367	 1.563279	 31.870980	-2.835890	-177.811000	 34.825640	-9.260737	-5.505652	-51.913390	 7.266710	 27.398920	 74.494460	-19.638640	-1.690710	 33.401790	 2.897322	-1.368376	 7.463421	-11.212260	 4.024203	 5.329429	-5.224420	-3.997585	-6.450512	 11.057000	-121.343800	 8.054799	 94.349070	 18.768010	 46.422370	-0.937894	 24.009680	-1.192068	-0.206911	-7.589118	-34.593440	-21.475770	 4.705851	 19.123960	-1.698649	-5.863279	 21.705800	 2.399618	 5.341614	 4.576344	-0.164761	-0.179901	-5.063265	-0.091605	-1.974119	-3.080819	-0.207506	 118.336600	-0.385678	-90.651820	 18.112020	 55.686490	-19.442740	-15.315850	-0.584663	 0.358132	-9.054560	-3.021469	-42.687180	-2.147043	 23.792410	 1.184167	 15.325210	 42.832710	-11.011870	-8.534716	 21.782260	-1.081629
-0.044149	 1.217493	-1.403666	-2.860492	-0.595407	-172.602200	 167.588000	-0.187789	 13.268420	 3.882443	-27.059580	 7.505547	 27.266000	 81.820750	-18.514680	 1.628668	 32.667780	-2.867698	 177.148900	 41.991660	-4.482827	-3.608873	-39.932990	 9.926790	 35.404030	 71.464880	-23.249870	-1.718919	 33.735970	 2.911617	-1.343403	 6.181194	-10.959290	 3.588215	 7.559734	-5.115168	-3.480897	-9.392382	 9.056944	-121.329700	 8.852502	 94.745750	 24.121280	 42.516890	-3.127053	 31.421760	-1.513340	-0.508002	-7.995937	-38.668470	-15.869980	 4.809539	 19.461750	-1.754516	-5.862590	 22.002660	 2.432459	 5.354337	 4.874933	-0.159414	-0.194398	-5.131097	-0.024536	-1.737789	-3.622081	-0.713700	 118.228100	-0.856533	-90.432130	 20.174160	 56.595570	-19.570040	-6.379483	-0.226116	 0.903407	-15.630060	-4.977946	-40.950900	-1.794516	 21.010500	 1.012296	 14.738490	 40.109490	-10.035980	-8.533299	 18.990980	-0.900305
